<?xml version="1.0" encoding="UTF-8"?>
<svg width="40px" height="26px" viewBox="0 0 40 26" version="1.1" xmlns="http://www.w3.org/2000/svg" xmlns:xlink="http://www.w3.org/1999/xlink">
    <!-- Generator: Sketch 61.2 (89653) - https://sketch.com -->
    <title>enter</title>
    <desc>Created with Sketch.</desc>
    <g id="Page-1" stroke="none" stroke-width="1" fill="none" fill-rule="evenodd">
        <g id="enter" transform="translate(1.000000, 1.000000)" fill="#eeeeee" fill-rule="nonzero" stroke="#858585" stroke-width="2">
            <path d="M36.6181783,0.470103857 C36.5400754,0.550658143 36.4956154,0.662862429 36.4973469,0.775049571 L36.5139754,14.5730653 L1.82673471,14.5730653 L9.50875071,7.09605386 C9.59148171,7.01835386 9.64127529,6.90667243 9.64381157,6.79320386 C9.64634014,6.67973529 9.601563,6.56594529 9.52238743,6.48462814 C9.44320971,6.40331529 9.330654,6.35552529 9.21715671,6.35503243 C9.10365943,6.35460386 8.990694,6.401361 8.91081771,6.48198814 L0.4723605,14.6945653 C0.3906315,14.774151 0.342811929,14.8875081 0.342811929,15.0015939 C0.342811929,15.1156796 0.3906315,15.2289939 0.4723605,15.3086224 L8.91033086,23.5383081 C8.99064771,23.616651 9.10274786,23.6615224 9.21496929,23.6602387 C9.32717571,23.6602387 9.43815214,23.6112081 9.51654043,23.5308939 C9.59492786,23.4505796 9.63977143,23.3385081 9.63841971,23.2262653 C9.63704829,23.1140653 9.58952186,23.0031081 9.50922043,22.9246796 L1.82482029,15.4305939 L36.8755564,15.4305939 C37.278825,15.4215939 37.3649421,15.2602367 37.3714736,14.9322939 L37.354845,0.773626714 C37.3561307,0.659382429 37.309635,0.545318143 37.2286821,0.464708143 C37.1477121,0.384098143 37.033455,0.338009571 36.919215,0.339730285 C36.8070411,0.341601 36.6962769,0.389549571 36.6181783,0.470103857 Z" id="Path"></path>
        </g>
    </g>
</svg>