<?xml version="1.0" encoding="UTF-8"?>
<svg width="512px" height="512px" viewBox="0 0 512 512" version="1.1" xmlns="http://www.w3.org/2000/svg" xmlns:xlink="http://www.w3.org/1999/xlink">
    <g id="Square" stroke="none" stroke-width="1" fill="none" fill-rule="evenodd">
        <g id="Group" transform="translate(255.500000, 256.000000) rotate(-180.000000) translate(-255.500000, -256.000000) translate(120.000000, 11.000000)" fill="#85144B" fill-rule="nonzero" stroke="#85144B" stroke-width="21">
            <path d="M252.245675,294 C241.887947,294 233.491349,301.857371 233.491349,311.549929 L233.491349,365.896209 C232.148657,415.637798 188.672153,455.307551 135.5,455.307551 C82.3278473,455.307551 38.8513431,415.637798 37.5086505,365.896209 L37.5086505,311.549929 C37.5086505,301.857371 29.1120531,294 18.7543253,294 C8.39659743,294 -2.21689334e-12,301.857371 -2.21689334e-12,311.549929 L-2.21689334e-12,365.896209 C1.58312984,434.863786 61.7823951,490 135.5,490 C209.217605,490 269.41687,434.863786 271,365.896209 L271,311.549929 C271,301.857371 262.603403,294 252.245675,294 Z" id="Path"></path>
            <path d="M135.531257,0 C60.805399,0.0633766033 0.206583888,55.9559536 -1.13686838e-13,125.0056 L-1.13686838e-13,178.670203 C-1.13686838e-13,188.241186 8.39659743,196 18.7543253,196 C29.1120531,196 37.5086505,188.241186 37.5086505,178.670203 L37.5086505,125.0056 C38.8513431,75.8879297 82.3278473,36.7157634 135.5,36.7157634 C188.672153,36.7157634 232.148657,75.8879297 233.491349,125.0056 L233.491349,178.670203 C233.491349,188.241186 241.887947,196 252.245675,196 C262.603403,196 271,188.241186 271,178.670203 L271,125.0056 C270.793523,55.9784684 210.23271,0.0951658987 135.531257,0 Z" id="Path"></path>
            <path d="M153.5,324.191924 L153.5,139.808076 C153.5,132.182086 145.217268,126 135,126 C124.782732,126 116.5,132.182086 116.5,139.808076 L116.5,324.191924 C116.5,331.817914 124.782732,338 135,338 C145.217268,338 153.5,331.817914 153.5,324.191924 L153.5,324.191924 Z" id="Path"></path>
        </g>
    </g>
</svg>